Coordinates
version=1
nRows=10
nColumns=46
inDegrees=yes

Units are S.I. units (second, meters, Newtons, ...)
Angles are in degrees.

endheader
time	pelvis_tilt	pelvis_list	pelvis_rotation	pelvis_tx	pelvis_ty	pelvis_tz	bb_angle	bb_tx	bb_ty	bb_tz	hip_flexion_r	hip_adduction_r	hip_rotation_r	knee_angle_r	knee_angle_r_beta	ankle_angle_r	subtalar_angle_r	mtp_angle_r	crank_angle_r	hip_flexion_l	hip_adduction_l	hip_rotation_l	knee_angle_l	knee_angle_l_beta	ankle_angle_l	subtalar_angle_l	mtp_angle_l	crank_angle_l	lumbar_extension	lumbar_bending	lumbar_rotation	arm_flex_r	arm_add_r	arm_rot_r	elbow_flex_r	pro_sup_r	wrist_flex_r	wrist_dev_r	arm_flex_l	arm_add_l	arm_rot_l	elbow_flex_l	pro_sup_l	wrist_flex_l	wrist_dev_l
      2.50000000	    -24.90799562	     -7.33778584	    -16.08747617	      0.32818841	      1.10787742	     -0.30800563	      0.00000000	      0.50000000	      0.00000000	      0.25000000	     80.03653694	      8.27700843	     -3.85140735	     93.87692382	      1.63846141	     25.37633775	      0.27685094	      0.00000000	      0.00000000	     34.84661034	    -21.11147611	     -8.32759905	     37.79343114	      0.65961981	    -27.65260771	     -3.22803049	      0.00000000	      0.00000000	    -61.37123212	      1.67875113	      9.82549820	     82.76634091	      0.93242877	     33.44419319	     42.05512701	     43.16480524	      0.00000000	      0.00000000	     60.59640290	    -23.70455286	     14.07003503	     64.36828218	     44.36405037	      0.00000000	      0.00000000
      2.50500000	    -24.89050924	     -7.17350702	    -15.99366785	      0.32765127	      1.10823663	     -0.30849560	      0.00000000	      0.50000000	      0.00000000	      0.25000000	     79.62402690	      8.23898701	     -3.82374917	     92.53018810	      1.61495644	     25.35686717	     -0.22795023	      0.00000000	      0.00000000	     35.61588228	    -20.86269206	     -7.66194533	     39.58261553	      0.69084697	    -27.50157710	     -3.64730069	      0.00000000	      0.00000000	    -61.61583281	      1.79101175	      9.71421962	     82.13464344	      1.12914970	     31.74012622	     44.41597105	     43.36826105	      0.00000000	      0.00000000	     60.40176597	    -23.61765072	     13.17521187	     65.21376703	     44.41476423	      0.00000000	      0.00000000
      2.51000000	    -24.54480898	     -6.85288043	    -15.92830406	      0.32713141	      1.10900643	     -0.30902055	      0.00000000	      0.50000000	      0.00000000	      0.25000000	     78.92588215	      8.21322278	     -3.49356950	     91.18347811	      1.59145192	     25.08668494	     -0.80880676	      0.00000000	      0.00000000	     35.97476460	    -20.40150500	     -7.16255731	     41.27894621	      0.72045352	    -27.38740181	     -4.14996932	      0.00000000	      0.00000000	    -61.94589590	      1.80144639	      9.40744752	     82.51157162	      1.80056464	     31.67316046	     43.30185825	     43.12358502	      0.00000000	      0.00000000	     60.81211847	    -23.62992726	     13.75901989	     64.13830495	     44.31206515	      0.00000000	      0.00000000
      2.51500000	    -24.32516267	     -6.54391338	    -15.81699257	      0.32672860	      1.10944937	     -0.30940372	      0.00000000	      0.50000000	      0.00000000	      0.25000000	     78.38024705	      8.13687646	     -3.19930825	     89.87095359	      1.56854404	     24.78859102	     -1.12603693	      0.00000000	      0.00000000	     36.55036943	    -19.96367769	     -6.61855496	     43.08460358	      0.75196819	    -27.23690958	     -4.71002411	      0.00000000	      0.00000000	    -62.23186014	      1.82928907	      9.15397730	     82.29887818	      2.22976271	     30.56384923	     44.05596299	     43.11182447	      0.00000000	      0.00000000	     60.91837446	    -23.59532595	     13.53481483	     64.07636919	     44.29828439	      0.00000000	      0.00000000
      2.52000000	    -24.10799192	     -6.29317803	    -15.63119329	      0.32634004	      1.10981090	     -0.30995774	      0.00000000	      0.50000000	      0.00000000	      0.25000000	     77.81976614	      7.97895208	     -2.97438039	     88.53307236	      1.54519361	     24.35602402	     -1.46663160	      0.00000000	      0.00000000	     37.17933041	    -19.50907318	     -5.93703114	     44.93157844	      0.78420398	    -27.00276033	     -5.13240733	      0.00000000	      0.00000000	    -62.50536415	      1.97786155	      8.88867215	     82.27459230	      2.76642571	     29.77728864	     44.27562926	     43.06126099	      0.00000000	      0.00000000	     61.02799327	    -23.63662157	     13.53904541	     63.89177863	     44.29019831	      0.00000000	      0.00000000
      2.52500000	    -23.87289676	     -5.94762656	    -15.45721808	      0.32598417	      1.10993250	     -0.31039009	      0.00000000	      0.50000000	      0.00000000	      0.25000000	     77.25424820	      7.83550060	     -2.61690813	     87.23443040	      1.52252803	     23.84329425	     -1.90903849	      0.00000000	      0.00000000	     37.82711292	    -18.99898112	     -5.40850015	     46.85245774	      0.81772965	    -26.78182114	     -5.49600529	      0.00000000	      0.00000000	    -62.76664043	      2.04862592	      8.58234854	     82.09225999	      3.26081272	     28.77536696	     44.88914319	     43.06328432	      0.00000000	      0.00000000	     61.05212478	    -23.61804039	     13.39383835	     63.90866791	     44.29305209	      0.00000000	      0.00000000
      2.53000000	    -23.66317729	     -5.64979702	    -15.22032375	      0.32568150	      1.10991116	     -0.31089790	      0.00000000	      0.50000000	      0.00000000	      0.25000000	     76.68403547	      7.65092122	     -2.30375915	     85.90667472	      1.49935432	     23.25048012	     -2.31140275	      0.00000000	      0.00000000	     38.53602210	    -18.47871846	     -4.79529308	     48.80937200	      0.85188425	    -26.45839997	     -5.83824161	      0.00000000	      0.00000000	    -62.98195127	      2.21870230	      8.30632380	     81.93377147	      3.76360972	     27.87272678	     45.28175840	     43.04007485	      0.00000000	      0.00000000	     61.10953902	    -23.64221647	     13.44715769	     63.80087464	     44.29657463	      0.00000000	      0.00000000
      2.53500000	    -23.56330662	     -5.47693050	    -15.03487961	      0.32532250	      1.10957590	     -0.31124915	      0.00000000	      0.50000000	      0.00000000	      0.25000000	     76.12799584	      7.63747514	     -2.06940736	     84.52667163	      1.47526873	     22.76430848	     -2.75956556	      0.00000000	      0.00000000	     39.40014962	    -18.14723621	     -4.18827432	     50.87310640	      0.88790321	    -26.09414897	     -6.19402327	      0.00000000	      0.00000000	    -63.23599083	      2.38363568	      8.30357510	     80.94529033	      3.88255715	     25.66363227	     48.55666191	     43.36745970	      0.00000000	      0.00000000	     60.68887188	    -23.36182438	     12.23520592	     64.94923937	     44.35774592	      0.00000000	      0.00000000
      2.54000000	    -23.26363210	     -5.02145978	    -14.70690740	      0.32505258	      1.10933347	     -0.31176753	      0.00000000	      0.50000000	      0.00000000	      0.25000000	     75.45749019	      7.33427206	     -1.54871606	     83.23234269	      1.45267842	     22.18993130	     -3.11095080	      0.00000000	      0.00000000	     40.01709415	    -17.41519750	     -3.71584029	     52.77330005	      0.92106784	    -25.75113783	     -6.35674876	      0.00000000	      0.00000000	    -63.30826979	      2.57300890	      7.83769475	     81.29664529	      4.65301978	     25.48919059	     46.72617849	     43.00925304	      0.00000000	      0.00000000	     61.28576299	    -23.48754367	     13.57224780	     63.28274120	     44.22795763	      0.00000000	      0.00000000
      2.54500000	    -22.88635918	     -4.65828864	    -14.36852264	      0.32488210	      1.10891865	     -0.31214058	      0.00000000	      0.50000000	      0.00000000	      0.25000000	     74.72223884	      7.08765427	     -1.06475746	     81.98996877	      1.43099491	     21.51767145	     -3.43634300	      0.00000000	      0.00000000	     40.56744593	    -16.79559721	     -3.34690853	     54.73750711	      0.95534972	    -25.37712984	     -6.71757242	      0.00000000	      0.00000000	    -63.58408721	      2.74403979	      7.47662554	     81.20183974	      4.84574057	     25.42798070	     46.90858128	     43.03737628	      0.00000000	      0.00000000	     61.36262331	    -23.50916058	     13.64329669	     63.24375970	     44.23052796	      0.00000000	      0.00000000
